# xmcd
#
# Track frame offsets:
#	150
#	15755
#	33618
#	50324
#	63099
#	77933
#	92622
#	107893
#	122619
#	139401
#	157350
#	171694
#	187628
#	203865
#	218585
#	229642
#	248303
#	262354
#	278116
#	293454
#
# Disc length: 4134 seconds
#
# Revision: 1
# Processed by: cddbd v1.5.2PL0 Copyright (c) Steve Scherf et al.
# Submitted via: audiograbber 1.83.01
#
DISCID=17102414
DTITLE=Diversen - Holland Party Vol.4
DYEAR=1900
DGENRE=
TTITLE0=Jan Smit - Verliefd maar niet op jou
TTITLE1=Rob Ronalds - Bloed, zweet en de vlieger
TTITLE2=Helemaal Hollands - Een ster vernoemd naar jou
TTITLE3=Henk Wijngaard - Containersong
TTITLE4=Stef Ekkel - De Griekse melodie
TTITLE5=Frans Bauer - Heb je even voor mij
TTITLE6=Tol Hansse - Big city
TTITLE7=Thomas Berge - Bellen
TTITLE8=Guus Meeuwis - Geef mij je angst
TTITLE9=BZN - De zon, de zee
TTITLE10=Flair - Aiko aiko
TTITLE11=Santa Rosa - Leven in de brouwerij
TTITLE12=Vangrail - Ik hunker naar jou
TTITLE13=Imca Marina - Vino
TTITLE14=Rob de Nijs - Ritme van de regen
TTITLE15=Alex - Meissie meissie
TTITLE16=Bouke - Kom maar, kom maar
TTITLE17=Nienke - Man van mijn dromen
TTITLE18=Henkie - De fiets
TTITLE19=Zware Jongens - De troubadour
EXTD=
EXTT0=
EXTT1=
EXTT2=
EXTT3=
EXTT4=
EXTT5=
EXTT6=
EXTT7=
EXTT8=
EXTT9=
EXTT10=
EXTT11=
EXTT12=
EXTT13=
EXTT14=
EXTT15=
EXTT16=
EXTT17=
EXTT18=
EXTT19=
PLAYORDER=
